<svg width="200" height="52" viewBox="0 0 200 52" fill="none" xmlns="http://www.w3.org/2000/svg">
<g clip-path="url(#clip0_2871_21292)">
<path fill-rule="evenodd" clip-rule="evenodd" d="M67.0371 37.419H75.7916V43.3964H64.3951C62.6182 43.3964 60.9142 42.6891 59.6578 41.4303C58.4014 40.1714 57.6955 38.464 57.6955 36.6836V22.5438C57.6955 21.9866 57.4746 21.4522 57.0814 21.0582C56.6881 20.6642 56.1548 20.4428 55.5987 20.4428H51.0065V14.4549H55.5882C56.1443 14.4549 56.6776 14.2336 57.0709 13.8396C57.4641 13.4456 57.6851 12.9112 57.6851 12.3539V5.86182H64.3636V12.3539C64.3636 12.9112 64.5845 13.4456 64.9778 13.8396C65.371 14.2336 65.9043 14.4549 66.4605 14.4549H75.7916V20.4428H66.4605C65.9043 20.4428 65.371 20.6642 64.9778 21.0582C64.5845 21.4522 64.3636 21.9866 64.3636 22.5438V34.7927C64.3773 35.494 64.665 36.162 65.165 36.6531C65.6649 37.1441 66.337 37.4191 67.0371 37.419ZM113.923 5.86182H107.213V43.3964H113.923V5.86182ZM104.372 30.5907H85.0493C85.028 30.5956 85.0091 30.6076 84.9957 30.6249C84.9824 30.6421 84.9753 30.6634 84.9759 30.6853V31.263C84.9759 35.36 86.7582 38.1123 91.5496 38.1123C94.8102 38.1123 96.5192 36.8097 97.0644 35.1604C97.1599 34.864 97.2198 34.5571 97.2426 34.2465L97.3475 32.8703H104.152V33.9733C103.617 39.8982 99.4443 43.8586 91.4867 43.8586C82.3758 43.8586 78.0247 38.7847 78.0247 30.5907V27.1871C78.0247 19.0877 82.3758 14.0137 91.4867 14.0137C99.7484 14.0137 104.372 18.7305 104.372 27.3657V30.5907ZM97.4733 25.6428C97.4838 22.0396 95.7224 19.76 91.3399 19.76C87.1462 19.76 85.3219 22.1236 85.0283 25.6323C85.0268 25.6442 85.0279 25.6563 85.0314 25.6677C85.035 25.6792 85.0409 25.6897 85.0488 25.6987C85.0568 25.7076 85.0665 25.7148 85.0775 25.7196C85.0884 25.7245 85.1002 25.727 85.1122 25.7269H97.3894C97.4109 25.7246 97.4309 25.715 97.4462 25.6997C97.4614 25.6844 97.471 25.6643 97.4733 25.6428ZM167.784 50.0407C169.038 48.7821 169.742 47.0763 169.742 45.2978L169.721 14.518C169.712 14.5124 169.701 14.5095 169.69 14.5095C169.679 14.5095 169.668 14.5124 169.658 14.518H163.074C163.064 14.5124 163.054 14.5095 163.043 14.5095C163.032 14.5095 163.021 14.5124 163.011 14.518V32.5026V32.8913C162.749 35.3075 161.407 38.1438 157.077 38.1438C153.303 38.1438 151.615 35.9588 151.615 31.9564V14.518H151.562H145.009H144.957V32.7337C144.957 39.457 148.281 43.8586 154.33 43.8586C156.043 43.9104 157.739 43.5096 159.248 42.6964C160.757 41.8832 162.026 40.6862 162.927 39.2259C162.927 39.2119 162.933 39.1986 162.943 39.1887C162.952 39.1789 162.966 39.1733 162.98 39.1733C162.994 39.1733 163.007 39.1789 163.017 39.1887C163.027 39.1986 163.032 39.2119 163.032 39.2259V43.1968C163.035 43.5503 162.968 43.9009 162.835 44.2283C162.701 44.5558 162.505 44.8536 162.256 45.1045C162.008 45.3555 161.712 45.5547 161.387 45.6907C161.061 45.8266 160.711 45.8966 160.359 45.8966H145.083C145.066 45.8966 145.05 45.9032 145.038 45.915C145.027 45.9268 145.02 45.9429 145.02 45.9596V51.9475C145.02 51.9642 145.027 51.9802 145.038 51.992C145.05 52.0039 145.066 52.0105 145.083 52.0105H163.053C164.828 52.0077 166.529 51.2993 167.784 50.0407ZM117.09 14.4655H123.747L123.737 18.699C123.737 18.7129 123.742 18.7263 123.752 18.7361C123.762 18.746 123.775 18.7515 123.789 18.7515C123.803 18.7515 123.816 18.746 123.826 18.7361C123.836 18.7263 123.841 18.7129 123.841 18.699C124.751 17.2283 126.029 16.0219 127.548 15.1999C129.068 14.3779 130.775 13.969 132.502 14.0137C138.541 14.0137 141.875 18.4259 141.875 25.1386V43.3964H135.207V25.9055C135.207 21.8925 133.519 19.718 129.744 19.718C124.722 19.718 123.747 23.5418 123.747 26.1261V43.3964H117.09V14.4655ZM182.009 28.3847C182.026 28.413 182.036 28.4458 182.036 28.4792C182.036 28.5126 182.026 28.5454 182.009 28.5737L172.216 43.3964H179.555L185.846 33.7527C185.853 33.7396 185.864 33.7287 185.877 33.721C185.89 33.7134 185.904 33.7094 185.919 33.7094C185.926 33.7094 185.933 33.7102 185.94 33.7119C185.948 33.7139 185.955 33.7169 185.962 33.721C185.975 33.7287 185.986 33.7396 185.993 33.7527L192.231 43.3964H199.969L190.218 28.5948C190.202 28.5676 190.194 28.5368 190.194 28.5055C190.194 28.4741 190.202 28.4433 190.218 28.4162L199.602 14.4655H191.99L186.423 23.2372C186.415 23.248 186.405 23.2569 186.393 23.263C186.381 23.269 186.368 23.2722 186.355 23.2722C186.341 23.2722 186.328 23.269 186.316 23.263C186.304 23.2569 186.294 23.248 186.286 23.2372L180.751 14.455H172.667L182.009 28.3847Z" fill="#FEFDF5"/>
<path fill-rule="evenodd" clip-rule="evenodd" d="M11.3546 13.52H17.8549L21.0946 7.47958C21.3687 6.95827 21.7796 6.52185 22.2831 6.21741C22.7866 5.91296 23.3635 5.75206 23.9516 5.75206C24.5396 5.75206 25.1165 5.91296 25.62 6.21741C26.1235 6.52185 26.5345 6.95827 26.8085 7.47958L29.9539 13.52H36.4542L31.8411 4.77978C31.0762 3.33571 29.9333 2.12757 28.5351 1.28502C27.1368 0.442474 25.536 -0.00268555 23.9044 -0.00268555C22.2728 -0.00268555 20.6719 0.442474 19.2737 1.28502C17.8755 2.12757 16.7326 3.33571 15.9677 4.77978L11.3546 13.52ZM46.991 39.9087C47.7923 38.4475 48.0204 36.7392 47.6305 35.1184C47.5188 34.6704 47.3643 34.2341 47.1692 33.8157C47.1076 33.6785 47.0376 33.5452 46.9595 33.4166L40.606 21.3883H34.1057L40.7528 33.9943C40.9615 34.3607 41.0712 34.7753 41.0712 35.1972C41.0712 35.619 40.9615 36.0336 40.7528 36.4C40.5495 36.7423 40.2609 37.0258 39.9154 37.2229C39.5699 37.4199 39.1793 37.5237 38.7817 37.524H31.2015C31.1176 38.6976 30.7539 39.8339 30.1409 40.8374C29.528 41.841 28.6836 42.6825 27.6788 43.2913H41.6125C42.5427 43.2293 43.4481 42.964 44.265 42.5139C45.418 41.9449 46.3693 41.0357 46.991 39.9087ZM17.6148 17.0299C17.0142 18.0341 16.6649 19.169 16.5968 20.3378H7.46487V14.5705H20.0461C19.0496 15.1818 18.2155 16.0256 17.6148 17.0299ZM17.6347 20.758V36.5155H20.5913C21.2079 36.5086 21.8053 36.2994 22.2919 35.92C22.7785 35.5405 23.1277 35.0117 23.2858 34.4145C23.3494 34.1854 23.3812 33.9485 23.3802 33.7107V24.2561C23.3829 23.2298 23.7896 22.2459 24.512 21.5181C25.2343 20.7904 26.2141 20.3776 27.2384 20.3693H40.3963V14.5705H23.7995C22.1636 14.5733 20.5955 15.2264 19.4397 16.3865C18.2839 17.5465 17.6347 19.1188 17.6347 20.758ZM0.178255 35.1184C0.290015 34.6704 0.444497 34.2341 0.639567 33.8157C0.67671 33.7351 0.717508 33.6581 0.759803 33.5783C0.78914 33.523 0.819198 33.4663 0.849255 33.406L7.20279 21.3778H13.7555L7.10843 33.9838C6.89982 34.3521 6.79015 34.7684 6.79015 35.1919C6.79015 35.6154 6.89982 36.0317 7.10843 36.4C7.31174 36.7423 7.60027 37.0258 7.94578 37.2229C8.29129 37.4199 8.68194 37.5237 9.07949 37.524H20.5599C21.5841 37.524 22.5666 37.1171 23.2918 36.3924C24.017 35.6677 24.4258 34.6844 24.4286 33.6582V24.2036C24.4338 23.4648 24.7255 22.7569 25.242 22.2296C25.7585 21.7023 26.4594 21.3968 27.1965 21.3778H30.195V36.9883C30.195 38.6599 29.5323 40.2631 28.3525 41.4452C27.1728 42.6272 25.5728 43.2913 23.9044 43.2913H6.19629C5.26607 43.2293 4.36068 42.964 3.54374 42.5139C2.39234 41.9477 1.44119 41.0423 0.817802 39.9192C0.0167654 38.4541 -0.211224 36.7427 0.178255 35.1184Z" fill="#00E3AA"/>
</g>
<defs>
<clipPath id="clip0_2871_21292">
<rect width="200" height="52" fill="white"/>
</clipPath>
</defs>
</svg>
