<svg id="Art" xmlns="http://www.w3.org/2000/svg" viewBox="0 0 1180.92 315.8"><path d="M1004.5,275.8a40,40,0,0,1-40,40H857.11a.34.34,0,0,1-.35-.35V279.73a.35.35,0,0,1,.35-.35H948.4a16,16,0,0,0,16-16V239.66a.34.34,0,0,0-.63-.17c-10.41,16.2-27.21,27.66-51.4,27.66-36.11,0-56-26.28-56-66.37V92.27a.35.35,0,0,1,.35-.35h39.12a.35.35,0,0,1,.35.35v104c0,23.9,10.09,36.91,32.66,36.91,25.87,0,33.84-16.89,35.46-31.51l.12-2.3V92.27a.35.35,0,0,1,.35-.35h39.38a.36.36,0,0,1,.36.35ZM468.6,188c0,48.86,26,79.12,80.45,79.12,47.52,0,72.48-23.63,75.66-58.94l.27-6.6H583.93l-.64,8.19a22.68,22.68,0,0,1-1,5.47c-3.29,9.8-13.51,17.63-33,17.63C520.64,232.9,510,216.44,510,192v-3.44a.55.55,0,0,1,.54-.55H626V168.92c0-51.51-27.61-79.65-77-79.65-54.43,0-80.45,30.26-80.45,78.59Zm42.23-28.94a.5.5,0,0,1-.5-.54c1.73-20.94,12.65-35,37.39-35,26.23,0,36.74,13.63,36.64,35.07a.5.5,0,0,1-.5.5ZM639.4,40.63V264.5h40.09V40.63Zm94.52,51.29H694.09V264.5h39.83v-103c0-15.4,5.84-38.23,35.84-38.23,22.57,0,32.66,13,32.66,36.91V264.5h39.82V155.64c0-40.09-19.91-66.37-56-66.37C762,89.27,745,101,734.56,117.19a.34.34,0,0,1-.64-.18ZM1073.41,175a1,1,0,0,1,0,1.1l-58.52,88.4h43.86L1096.56,207a.5.5,0,0,1,.83,0l37.29,57.51h46.24l-58.25-88.24a1,1,0,0,1,0-1.11l56.08-83.23h-45.93l-33,52.43a.5.5,0,0,1-.84,0l-33-52.43h-48.32ZM459.47,228.89H407.14a16,16,0,0,1-16-16V139.58a12,12,0,0,1,12-12h56.33V91.91H403.15a12,12,0,0,1-12-12V40.63H351.22V79.91a12,12,0,0,1-12,12h-27.9v35.67h28a12,12,0,0,1,12,12v84.31a40.73,40.73,0,0,0,40.6,40.61h67.55Z"/><path d="M72.48,87h40.29L132,50.58a18.42,18.42,0,0,1,16.52-9.95h0a18.4,18.4,0,0,1,16.52,9.95L184.29,87h40.29l-28.06-53a54.29,54.29,0,0,0-96,0Z"/><path d="M110.42,129.45v94.43h18.31a17.57,17.57,0,0,0,17.06-14.53,17.25,17.25,0,0,0,.25-2.89V150.07a22.5,22.5,0,0,1,22.48-22.5h79.2V92H147.92A37.54,37.54,0,0,0,110.42,129.45Z"/><path d="M8.92,207.13A40.07,40.07,0,0,0,6.12,215a40.54,40.54,0,0,0,3.9,29,37.75,37.75,0,0,0,16.56,15.77c4.77,2.32,10.42,4.68,16.14,4.68H148.54a38.15,38.15,0,0,0,38.11-38.11V132.57H168.43A17.53,17.53,0,0,0,151,150v56.48a23.14,23.14,0,0,1-.35,3.84,22.57,22.57,0,0,1-22.15,18.53H60a13,13,0,0,1-11.24-6.45,13.84,13.84,0,0,1-.34-13.74l40.25-76.12H48.36L10.18,204.65C9.74,205.45,9.34,206.24,8.92,207.13Z"/><path d="M270.49,259.82a37.8,37.8,0,0,0,16.56-15.77,40.53,40.53,0,0,0,3.89-29,40.07,40.07,0,0,0-2.8-7.89c-.42-.89-.82-1.69-1.24-2.43l-38.19-72.12H208.44l40.25,76.12a13.84,13.84,0,0,1-.34,13.74,13,13,0,0,1-11.23,6.45H191.58a42.8,42.8,0,0,1-4.62,17h0a43.38,43.38,0,0,1-18.27,18.55h85.67C260.07,264.5,265.72,262.14,270.49,259.82Z"/><path d="M49.35,127.58h56.11A42.56,42.56,0,0,1,127.93,92H49.35Z"/></svg>