<?xml version="1.0" encoding="UTF-8"?>
<!DOCTYPE svg PUBLIC "-//W3C//DTD SVG 1.1//EN" "http://www.w3.org/Graphics/SVG/1.1/DTD/svg11.dtd">
<svg xmlns="http://www.w3.org/2000/svg" version="1.1" width="144px" height="144px" style="shape-rendering:geometricPrecision; text-rendering:geometricPrecision; image-rendering:optimizeQuality; fill-rule:evenodd; clip-rule:evenodd" xmlns:xlink="http://www.w3.org/1999/xlink">
<g><path style="opacity:1" fill="#fcfbf3" d="M -0.5,-0.5 C 47.5,-0.5 95.5,-0.5 143.5,-0.5C 143.5,47.5 143.5,95.5 143.5,143.5C 95.5,143.5 47.5,143.5 -0.5,143.5C -0.5,95.5 -0.5,47.5 -0.5,-0.5 Z"/></g>
<g><path style="opacity:1" fill="#585858" d="M 104.5,54.5 C 99.0247,55.4889 93.358,55.8222 87.5,55.5C 84.6395,48.2752 80.6395,41.7752 75.5,36C 71.1712,34.8485 67.3379,35.6819 64,38.5C 60.8212,44.1939 57.6546,49.8606 54.5,55.5C 48.642,55.8222 42.9753,55.4889 37.5,54.5C 41.9875,46.1937 46.4875,37.8603 51,29.5C 62.7027,17.2549 75.3693,16.2549 89,26.5C 94.9522,35.4049 100.119,44.7382 104.5,54.5 Z"/></g>
<g><path style="opacity:1" fill="#a3a29f" d="M 37.5,54.5 C 42.9753,55.4889 48.642,55.8222 54.5,55.5C 48.6544,56.8166 42.6544,56.8166 36.5,55.5C 36.6236,54.8933 36.9569,54.56 37.5,54.5 Z"/></g>
<g><path style="opacity:1" fill="#a09f9c" d="M 104.5,54.5 C 105.043,54.56 105.376,54.8933 105.5,55.5C 99.3456,56.8166 93.3456,56.8166 87.5,55.5C 93.358,55.8222 99.0247,55.4889 104.5,54.5 Z"/></g>
<g><path style="opacity:1" fill="#9b9b98" d="M 58.5,60.5 C 48.0131,59.5056 37.3464,59.1722 26.5,59.5C 26.5,64.5 26.5,69.5 26.5,74.5C 25.5119,69.3595 25.1786,64.0262 25.5,58.5C 36.8529,58.1678 48.1862,58.5012 59.5,59.5C 59.3764,60.1067 59.0431,60.44 58.5,60.5 Z"/></g>
<g><path style="opacity:1" fill="#5a5a5a" d="M 67.5,58.5 C 83.8333,58.5 100.167,58.5 116.5,58.5C 116.5,63.8333 116.5,69.1667 116.5,74.5C 103.163,74.3334 89.8292,74.5001 76.5,75C 73.6667,76.5 71.5,78.6667 70,81.5C 69.6667,92.1667 69.3333,102.833 69,113.5C 68.1667,115.667 66.6667,117.167 64.5,118C 60.8484,118.499 57.1817,118.665 53.5,118.5C 53.3334,102.83 53.5001,87.1631 54,71.5C 56.7733,65.2276 61.2733,60.8943 67.5,58.5 Z"/></g>
<g><path style="opacity:1" fill="#575757" d="M 58.5,60.5 C 53.5616,63.7954 51.2283,68.462 51.5,74.5C 43.1667,74.5 34.8333,74.5 26.5,74.5C 26.5,69.5 26.5,64.5 26.5,59.5C 37.3464,59.1722 48.0131,59.5056 58.5,60.5 Z"/></g>
<g><path style="opacity:1" fill="#585858" d="M 24.5,77.5 C 30.5368,77.1707 36.5368,77.5041 42.5,78.5C 36.6667,89.5 30.8333,100.5 25,111.5C 23.5418,115.781 24.7084,118.947 28.5,121C 40.5,121.667 52.5,121.667 64.5,121C 67.1024,120.117 69.2691,118.617 71,116.5C 72.2675,105.238 72.9341,93.9046 73,82.5C 73.8333,80.3333 75.3333,78.8333 77.5,78C 81.1516,77.5014 84.8183,77.3347 88.5,77.5C 88.6666,92.837 88.4999,108.17 88,123.5C 86.5,130.333 82.3333,134.5 75.5,136C 56.1667,136.667 36.8333,136.667 17.5,136C 7.9842,131.476 4.15087,123.976 6,113.5C 12.448,101.603 18.6146,89.6031 24.5,77.5 Z"/></g>
<g><path style="opacity:1" fill="#585857" d="M 121.5,136.5 C 108.656,136.829 95.989,136.495 83.5,135.5C 87.6988,131.776 90.3654,127.109 91.5,121.5C 99.1739,121.666 106.841,121.5 114.5,121C 118.01,119.093 119.176,116.26 118,112.5C 111.961,100.92 105.794,89.4205 99.5,78C 105.528,77.1697 111.528,77.3364 117.5,78.5C 124.176,89.8502 130.343,101.517 136,113.5C 138.177,125.786 133.344,133.453 121.5,136.5 Z"/></g>
<g><path style="opacity:1" fill="#d2d2cc" d="M 83.5,135.5 C 95.989,136.495 108.656,136.829 121.5,136.5C 108.661,137.825 95.6606,137.825 82.5,136.5C 82.6236,135.893 82.9569,135.56 83.5,135.5 Z"/></g>
</svg>
