<svg width="88" height="80" viewBox="0 0 88 80" fill="none" xmlns="http://www.w3.org/2000/svg">
<path d="M34.6203 27.6986H22.0342L30.2514 12.2482C31.5712 9.76053 33.5481 7.67789 35.9696 6.22451C38.391 4.77112 41.1651 4.00202 43.9934 4C46.8215 3.99982 49.5962 4.76642 52.019 6.21734C54.4417 7.66827 56.4209 9.7486 57.7436 12.2346L65.9609 27.685H53.3611L47.8993 17.4156C47.5223 16.707 46.9581 16.1139 46.2675 15.7003C45.5768 15.2867 44.7859 15.0682 43.9797 15.0682C43.1735 15.0682 42.3826 15.2867 41.692 15.7003C41.0013 16.1139 40.4372 16.707 40.0601 17.4156L34.6203 27.6986Z" fill="#E6E3D3"/>
<path fill-rule="evenodd" clip-rule="evenodd" d="M43.9934 3.25C46.9571 3.24981 49.865 4.05313 52.4044 5.5739C54.9438 7.09469 57.0188 9.27554 58.4058 11.8823L67.2093 28.435H52.9105L47.2373 17.7679C46.9245 17.18 46.4562 16.6875 45.8822 16.3438C45.3082 16 44.6505 15.8182 43.9798 15.8182C43.3091 15.8182 42.6514 16 42.0774 16.3438C41.5036 16.6874 41.0355 17.1796 40.7226 17.7672C40.7225 17.7674 40.7228 17.767 40.7226 17.7672L35.0721 28.4486H20.7859L29.589 11.8967C29.589 11.8966 29.5889 11.8969 29.589 11.8967C30.9728 9.28829 33.0457 7.10479 35.5836 5.58145C38.1217 4.05807 41.0296 3.25211 43.9934 3.25ZM43.9937 4.75C46.6862 4.74986 49.3276 5.47974 51.6337 6.86078ZM43.9937 4.75C41.3012 4.75201 38.6603 5.48425 36.3556 6.86757C34.0508 8.25094 32.1696 10.2329 30.914 12.5997L23.2826 26.9486H34.1686L39.3972 17.0649L39.3981 17.0633C39.8394 16.2339 40.4994 15.5404 41.3067 15.0569C42.1139 14.5734 43.0381 14.3182 43.9798 14.3182C44.9215 14.3182 45.8456 14.5734 46.6529 15.0569C47.4602 15.5404 48.1202 16.2339 48.5615 17.0633L53.8117 26.935H64.7126L57.0816 12.5869C55.8231 10.2217 53.9398 8.24184 51.6337 6.86078" fill="black"/>
<path d="M83.6768 61.7483C83.4833 60.9611 83.2079 60.1961 82.855 59.4656C82.7455 59.2287 82.6249 58.9917 82.4962 58.7601L71.8467 38.7661H59.2743L70.8359 60.4871C71.9316 62.5111 70.51 64.9872 68.2722 64.9872H55.1246C55.1246 66.4405 54.8366 67.8797 54.2771 69.2223C53.7175 70.565 52.8974 71.7848 51.8637 72.8121C50.8299 73.8394 49.6027 74.6541 48.2522 75.2095C46.9017 75.765 45.4544 76.0503 43.9929 76.0492H72.9752C74.6186 76.0492 76.2128 75.42 77.6946 74.7063C79.7428 73.713 81.4316 72.1134 82.5291 70.1273C83.951 67.5751 84.3605 64.5858 83.6768 61.7483Z" fill="black"/>
<path fill-rule="evenodd" clip-rule="evenodd" d="M54.3746 64.9872L53.5848 68.9338L51.3351 72.2801L50.3081 72.9619L47.967 74.5159L44.0089 75.2992C45.3671 75.2982 46.712 75.0321 47.967 74.5159C48.7828 74.1804 49.5503 73.7435 50.2517 73.217C50.6333 72.9306 50.9954 72.6177 51.3351 72.2801C52.2989 71.3223 53.0634 70.1851 53.5848 68.9338C54.1063 67.6825 54.3746 66.3414 54.3746 64.9872ZM52.3924 73.3441C51.6184 74.1133 50.7429 74.7707 49.7919 75.2992H72.9752C74.4392 75.2992 75.9036 74.7364 77.3684 74.031C79.2773 73.105 80.8505 71.6144 81.8727 69.7646L81.874 69.7623C83.204 67.3749 83.5871 64.5794 82.9481 61.9258C82.7671 61.1899 82.5096 60.4748 82.1797 59.7918L82.1742 59.7804C82.0726 59.5606 81.9606 59.3401 81.8408 59.1246L81.8342 59.1128L71.3964 39.5161H60.5232L71.4956 60.1301L71.497 60.1327C72.8434 62.6244 71.1128 65.7372 68.2722 65.7372H55.8507C55.7678 67.0331 55.4706 68.3082 54.9694 69.5108C54.3718 70.9448 53.4961 72.2473 52.3924 73.3441ZM82.5291 70.1273L83.1843 70.4923L83.1849 70.4912L83.1856 70.49L82.5291 70.1273Z" fill="black"/>
<path d="M83.5332 59.1452C83.4174 58.895 83.2904 58.6454 83.155 58.4016L72.297 38.0161H58.0255L58.6123 39.1185L70.1739 60.8395L70.1764 60.8442C71.0186 62.4 69.9063 64.2372 68.2722 64.2372H54.3746V64.9872C54.3746 66.3414 54.1063 67.6825 53.5848 68.9338C53.0634 70.1851 52.2989 71.3223 51.3351 72.2801C50.9954 72.6177 50.6333 72.9306 50.2517 73.217L49.7919 75.2992C50.7429 74.7707 51.6184 74.1133 52.3924 73.3441C53.4961 72.2473 54.3718 70.9448 54.9694 69.5108C55.4706 68.3082 55.7678 67.0331 55.8507 65.7372H68.2722C71.1128 65.7372 72.8434 62.6244 71.497 60.1327L71.4956 60.1301L60.5232 39.5161H71.3964L81.8342 59.1128L81.8408 59.1246C81.9606 59.3401 82.0726 59.5606 82.1742 59.7804L82.1797 59.7918C82.5096 60.4748 82.7671 61.1899 82.9481 61.9258C83.5871 64.5794 83.204 67.3749 81.874 69.7623L81.8727 69.7646C80.8505 71.6144 79.2773 73.105 77.3684 74.031C75.9036 74.7364 74.4392 75.2992 72.9752 75.2992H49.7919C49.3868 75.5244 48.968 75.7261 48.5375 75.9032C47.1017 76.4937 45.5634 76.7981 44.01 76.7992H72.9752C74.7979 76.7992 76.5215 76.1038 78.0201 75.382L78.0219 75.3811C80.2086 74.3207 82.0123 72.6127 83.1849 70.4912L83.1843 70.4923L82.5291 70.1273L83.1856 70.49L83.1849 70.4912C84.698 67.7748 85.1338 64.593 84.406 61.5726L84.4051 61.5693C84.1996 60.7334 83.9074 59.9209 83.5332 59.1452Z" fill="black"/>
<path fill-rule="evenodd" clip-rule="evenodd" d="M54.3746 64.9872L53.5848 68.9338L51.3351 72.2801L50.3081 72.9619L47.967 74.5159L44.0089 75.2992C45.3671 75.2982 46.712 75.0321 47.967 74.5159C48.7828 74.1804 49.5503 73.7435 50.2517 73.217C50.6333 72.9306 50.9954 72.6177 51.3351 72.2801C52.2989 71.3223 53.0634 70.1851 53.5848 68.9338C54.1063 67.6825 54.3746 66.3414 54.3746 64.9872ZM52.3924 73.3441C51.6184 74.1133 50.7429 74.7707 49.7919 75.2992H72.9752C74.4392 75.2992 75.9036 74.7364 77.3684 74.031C79.2773 73.105 80.8505 71.6144 81.8727 69.7646L81.874 69.7623C83.204 67.3749 83.5871 64.5794 82.9481 61.9258C82.7671 61.1899 82.5096 60.4748 82.1797 59.7918L82.1742 59.7804C82.0726 59.5606 81.9606 59.3401 81.8408 59.1246L81.8342 59.1128L71.3964 39.5161H60.5232L71.4956 60.1301L71.497 60.1327C72.8434 62.6244 71.1128 65.7372 68.2722 65.7372H55.8507C55.7678 67.0331 55.4706 68.3082 54.9694 69.5108C54.3718 70.9448 53.4961 72.2473 52.3924 73.3441ZM82.5291 70.1273L83.1843 70.4923L83.1849 70.4912L83.1856 70.49L82.5291 70.1273Z" fill="#D3FFA6"/>
<path d="M32.878 38.5947C32.878 35.7049 34.0323 32.9334 36.087 30.8901C38.1417 28.8467 40.9285 27.6987 43.8343 27.6987H16.1504V38.7663H32.878V38.5947Z" fill="#00E3AA"/>
<path fill-rule="evenodd" clip-rule="evenodd" d="M15.4004 26.9487H43.8343V28.4487C41.1261 28.4487 38.5296 29.5187 36.6159 31.4219C34.7023 33.3249 33.628 35.9051 33.628 38.5947V39.5163H15.4004V26.9487ZM38.0873 28.4487H16.9004V38.0163H32.1424C32.2862 35.1369 33.4997 32.4053 35.5582 30.3583C36.3169 29.6037 37.1689 28.9635 38.0873 28.4487Z" fill="black"/>
<path d="M43.8343 27.6987C40.9285 27.6987 38.1417 28.8467 36.087 30.8901C34.0323 32.9334 32.8779 35.7049 32.8779 38.5947V64.9982H38.578C40.0218 64.9846 41.4019 64.4046 42.418 63.3843C43.4341 62.3641 44.0041 60.9862 44.0041 59.5502V44.1979C44.0041 42.753 44.5813 41.3673 45.6086 40.3456C46.636 39.3239 48.0293 38.7499 49.4822 38.7499H71.8551V27.6987H43.8343Z" fill="#D3FFA6"/>
<path fill-rule="evenodd" clip-rule="evenodd" d="M35.5581 30.3583C37.7538 28.1747 40.7309 26.9487 43.8343 26.9487H72.6051V39.4999H49.4822C48.2269 39.4999 47.0239 39.9959 46.1375 40.8774C45.2512 41.7588 44.7541 42.9533 44.7541 44.1979V59.5502C44.7541 59.5502 44.7541 59.5502 44.7541 59.5502C44.7541 61.1852 44.1051 62.7533 42.9494 63.9136C41.7938 65.0738 40.2253 65.7327 38.585 65.7482L38.578 65.7482H32.1279V38.5947C32.1279 35.5046 33.3623 32.542 35.5581 30.3583ZM43.8343 28.4487C41.126 28.4487 38.5296 29.5187 36.6158 31.4219C34.7022 33.3249 33.6279 35.9051 33.6279 38.5947V64.2482H38.5744C39.8206 64.2355 41.0107 63.7345 41.8866 62.8551C42.7632 61.975 43.2541 60.7872 43.2541 59.5503V44.1979C43.2541 42.5527 43.9113 40.9758 45.0798 39.8138C46.2481 38.6519 47.8318 37.9999 49.4822 37.9999H71.1051V28.4487H43.8343Z" fill="black"/>
<path d="M55.1276 38.7498H49.4713C48.0184 38.7498 46.625 39.3237 45.5977 40.3454C44.5703 41.3671 43.9932 42.7528 43.9932 44.1977V59.5583C43.9874 60.9994 43.4077 62.3795 42.3809 63.3965C41.3542 64.4135 39.9641 64.9844 38.515 64.9844H19.7386C17.5008 64.9844 16.0874 62.5083 17.1721 60.4844L28.7283 38.7498H16.1504L5.50083 58.7519C5.3721 58.9835 5.25432 59.2205 5.14201 59.4575C4.33918 61.1343 3.94951 62.9772 4.00524 64.8336C4.06097 66.69 4.56051 68.5065 5.4625 70.1328C6.56229 72.1177 8.253 73.7153 10.3025 74.7063C11.7843 75.42 13.373 76.0492 15.0246 76.0492H43.9932C46.9433 76.0492 49.7726 74.8838 51.8586 72.8092C53.9447 70.7347 55.1166 67.921 55.1166 64.9871V38.7498H55.1276Z" fill="#00E3AA"/>
<path fill-rule="evenodd" clip-rule="evenodd" d="M15.7 37.9998H29.9765L17.8343 60.8365L17.8331 60.8387C16.9968 62.3992 18.1082 64.2344 19.7386 64.2344H38.515C39.7671 64.2344 40.9673 63.7411 41.8531 62.8636C42.7384 61.9867 43.2377 60.7978 43.2432 59.557V44.1977C43.2432 42.5526 43.9004 40.9757 45.0688 39.8136C46.2372 38.6517 47.8209 37.9998 49.4713 37.9998H55.1276V38.7498H55.8666V64.9871C55.8666 68.1213 54.6146 71.1261 52.3875 73.341C50.1605 75.5557 47.1409 76.7992 43.9932 76.7992H15.0246C13.1937 76.7992 11.4755 76.1037 9.97702 75.382L9.97597 75.3815C7.7876 74.3234 5.98155 72.6171 4.80647 70.4962C3.84661 68.7656 3.3149 66.8322 3.25558 64.8561C3.19627 62.8804 3.61087 60.9193 4.46489 59.135C4.5798 58.8925 4.70397 58.6422 4.84195 58.3936L15.7 37.9998ZM54.3666 39.4998H49.4713C48.216 39.4998 47.0129 39.9957 46.1266 40.8772C45.2403 41.7586 44.7432 42.9531 44.7432 44.1977V59.5583L44.7432 59.5613C44.7366 61.2021 44.0765 62.7727 42.9087 63.9293C41.7411 65.0858 40.1612 65.7344 38.515 65.7344H19.7386C16.8938 65.7344 15.1785 62.6184 16.5105 60.1312C16.5106 60.1308 16.5108 60.1305 16.511 60.1301L27.4801 39.4998H16.6008L6.15643 59.1165C6.03855 59.3285 5.92835 59.5495 5.81977 59.7786L5.81848 59.7813C5.06728 61.3503 4.70277 63.0745 4.7549 64.8111C4.80703 66.5477 5.27434 68.2472 6.11837 69.769C7.14275 71.6178 8.71806 73.107 10.6283 74.0308C12.0934 74.7364 13.5524 75.2992 15.0246 75.2992H43.9932C46.7457 75.2992 49.3847 74.2118 51.3298 72.2774C53.2747 70.3432 54.3666 67.7207 54.3666 64.9871V39.4998Z" fill="black"/>
</svg>
